<svg xmlns="http://www.w3.org/2000/svg" viewBox="0 0 52 51.25" x="0px" y="0px"><path fill="#F3A847" d="M21,26 L21,36 C21.5522847,36 22,36.4477153 22,37 C22,37.5522847 21.5522847,38 21,38 L2,38 L2,39 L23,39 L23,32 C23,30.3431458 24.3431458,29 26,29 C27.6568542,29 29,30.3431458 29,32 L29,39 L50,39 L50,38 L31,38 C30.4477153,38 30,37.5522847 30,37 C30,36.4477153 30.4477153,36 31,36 L31,26 L21,26 Z M19,26 L16,26 L16,36 L19,36 L19,26 Z M14,26 L13,26 C12.4477153,26 12,25.5522847 12,25 C12,24.4477153 12.4477153,24 13,24 L39,24 C39.5522847,24 40,24.4477153 40,25 C40,25.5522847 39.5522847,26 39,26 L38,26 L38,36 L50,36 L50,15 L41,15 C40.4477153,15 40,14.5522847 40,14 L40,12 L37,12 C36.4477153,12 36,11.5522847 36,11 L36,10 L34.6666667,10 C34.3323135,10 34.0200822,9.83289886 33.8346164,9.5547002 L31.4648162,6 L30,6 C29.4477153,6 29,5.55228475 29,5 C29,3.34314575 27.6568542,2 26,2 C24.3431458,2 23,3.34314575 23,5 C23,5.55228475 22.5522847,6 22,6 L20.5351838,6 L18.1653836,9.5547002 C17.9799178,9.83289886 17.6676865,10 17.3333333,10 L16,10 L16,11 C16,11.5522847 15.5522847,12 15,12 L12,12 L12,14 C12,14.5522847 11.5522847,15 11,15 L2,15 L2,36 L14,36 L14,26 Z M36,26 L33,26 L33,36 L36,36 L36,26 Z M32,4 C32.3343532,4 32.6465845,4.16710114 32.8320503,4.4452998 L35.2018504,8 L37,8 C37.5522847,8 38,8.44771525 38,9 L38,10 L41,10 C41.5522847,10 42,10.4477153 42,11 L42,13 L50,13 C51.1045695,13 52,13.8954305 52,15 L52,39 C52,40.1045695 51.1045695,41 50,41 L2,41 C0.8954305,41 0,40.1045695 0,39 L0,15 C0,13.8954305 0.8954305,13 2,13 L10,13 L10,11 C10,10.4477153 10.4477153,10 11,10 L14,10 L14,9 C14,8.44771525 14.4477153,8 15,8 L16.7981496,8 L19.1679497,4.4452998 C19.3534155,4.16710114 19.6656468,4 20,4 L21.1000181,4 C21.5632884,1.71775968 23.5810421,0 26,0 C28.4189579,0 30.4367116,1.71775968 30.8999819,4 L32,4 Z M44.5,18 L46.5,18 C46.7761424,18 47,18.2238576 47,18.5 L47,22.5 C47,22.7761424 46.7761424,23 46.5,23 L44.5,23 C44.2238576,23 44,22.7761424 44,22.5 L44,18.5 C44,18.2238576 44.2238576,18 44.5,18 Z M5.5,18 L7.5,18 C7.77614237,18 8,18.2238576 8,18.5 L8,22.5 C8,22.7761424 7.77614237,23 7.5,23 L5.5,23 C5.22385763,23 5,22.7761424 5,22.5 L5,18.5 C5,18.2238576 5.22385763,18 5.5,18 Z M17.5,15 C18.3284271,15 19,15.6715729 19,16.5 L19,21.5 C19,21.7761424 18.7761424,22 18.5,22 L16.5,22 C16.2238576,22 16,21.7761424 16,21.5 L16,16.5 C16,15.6715729 16.6715729,15 17.5,15 Z M34.5,15 C35.3284271,15 36,15.6715729 36,16.5 L36,21.3813965 C36,21.6575389 35.7761424,21.8813965 35.5,21.8813965 L33.5,21.8813965 C33.2238576,21.8813965 33,21.6575389 33,21.3813965 L33,16.5 C33,15.6715729 33.6715729,15 34.5,15 Z M44.5,28 L46.5,28 C46.7761424,28 47,28.2238576 47,28.5 L47,31.5 C47,31.7761424 46.7761424,32 46.5,32 L44.5,32 C44.2238576,32 44,31.7761424 44,31.5 L44,28.5 C44,28.2238576 44.2238576,28 44.5,28 Z M5.5,28 L7.5,28 C7.77614237,28 8,28.2238576 8,28.5 L8,31.5 C8,31.7761424 7.77614237,32 7.5,32 L5.5,32 C5.22385763,32 5,31.7761424 5,31.5 L5,28.5 C5,28.2238576 5.22385763,28 5.5,28 Z M24.5,15 L27.5,15 C27.7761424,15 28,15.2238576 28,15.5 L28,21.5 C28,21.7761424 27.7761424,22 27.5,22 L24.5,22 C24.2238576,22 24,21.7761424 24,21.5 L24,15.5 C24,15.2238576 24.2238576,15 24.5,15 Z"/></svg>